<svg width="13" height="13" viewBox="0 0 13 13" fill="none" xmlns="http://www.w3.org/2000/svg">
<path d="M8.55528 2.60475V1.83758C8.55528 1.63595 8.38808 1.46875 8.18645 1.46875C7.98482 1.46875 7.81762 1.63595 7.81762 1.83758V2.57524H4.6211V1.83758C4.6211 1.63595 4.45389 1.46875 4.25227 1.46875C4.05064 1.46875 3.88344 1.63595 3.88344 1.83758V2.60475C2.55565 2.72769 1.91143 3.51944 1.81307 4.69478C1.80324 4.83739 1.92126 4.95542 2.05896 4.95542H10.3798C10.5224 4.95542 10.6404 4.83248 10.6256 4.69478C10.5273 3.51944 9.88306 2.72769 8.55528 2.60475Z" fill="#CBD0DC"/>
<path d="M10.157 5.6875H2.28865C2.01817 5.6875 1.79688 5.9088 1.79688 6.17927V9.20859C1.79688 10.6839 2.53453 11.6675 4.25574 11.6675H8.18992C9.91113 11.6675 10.6488 10.6839 10.6488 9.20859V6.17927C10.6488 5.9088 10.4275 5.6875 10.157 5.6875ZM4.85078 9.80364C4.8262 9.82331 4.80161 9.8479 4.77702 9.86265C4.74751 9.88232 4.71801 9.89707 4.6885 9.90691C4.65899 9.92166 4.62949 9.9315 4.59998 9.93642C4.56556 9.94133 4.53605 9.94625 4.50163 9.94625C4.43769 9.94625 4.37376 9.9315 4.31475 9.90691C4.25082 9.88232 4.20164 9.8479 4.15247 9.80364C4.06395 9.7102 4.00985 9.58234 4.00985 9.45448C4.00985 9.32662 4.06395 9.19876 4.15247 9.10532C4.20164 9.06106 4.25082 9.02664 4.31475 9.00205C4.40327 8.96271 4.50163 8.95287 4.59998 8.97254C4.62949 8.97746 4.65899 8.98729 4.6885 9.00205C4.71801 9.01188 4.74751 9.02664 4.77702 9.04631C4.80161 9.06598 4.8262 9.08565 4.85078 9.10532C4.9393 9.19876 4.9934 9.32662 4.9934 9.45448C4.9934 9.58234 4.9393 9.7102 4.85078 9.80364ZM4.85078 8.08243C4.75735 8.17095 4.62949 8.22505 4.50163 8.22505C4.37376 8.22505 4.2459 8.17095 4.15247 8.08243C4.06395 7.989 4.00985 7.86114 4.00985 7.73327C4.00985 7.60541 4.06395 7.47755 4.15247 7.38412C4.29016 7.24642 4.50654 7.20216 4.6885 7.28084C4.75243 7.30543 4.80652 7.33986 4.85078 7.38412C4.9393 7.47755 4.9934 7.60541 4.9934 7.73327C4.9934 7.86114 4.9393 7.989 4.85078 8.08243ZM6.57199 9.80364C6.47855 9.89216 6.35069 9.94625 6.22283 9.94625C6.09497 9.94625 5.96711 9.89216 5.87367 9.80364C5.78515 9.7102 5.73106 9.58234 5.73106 9.45448C5.73106 9.32662 5.78515 9.19876 5.87367 9.10532C6.05563 8.92337 6.39003 8.92337 6.57199 9.10532C6.66051 9.19876 6.7146 9.32662 6.7146 9.45448C6.7146 9.58234 6.66051 9.7102 6.57199 9.80364ZM6.57199 8.08243C6.5474 8.1021 6.52281 8.12177 6.49822 8.14145C6.46872 8.16112 6.43921 8.17587 6.4097 8.18571C6.3802 8.20046 6.35069 8.21029 6.32118 8.21521C6.28676 8.22013 6.25725 8.22505 6.22283 8.22505C6.09497 8.22505 5.96711 8.17095 5.87367 8.08243C5.78515 7.989 5.73106 7.86114 5.73106 7.73327C5.73106 7.60541 5.78515 7.47755 5.87367 7.38412C5.91793 7.33986 5.97203 7.30543 6.03596 7.28084C6.21791 7.20216 6.43429 7.24642 6.57199 7.38412C6.66051 7.47755 6.7146 7.60541 6.7146 7.73327C6.7146 7.86114 6.66051 7.989 6.57199 8.08243ZM8.29319 9.80364C8.19976 9.89216 8.0719 9.94625 7.94404 9.94625C7.81617 9.94625 7.68831 9.89216 7.59488 9.80364C7.50636 9.7102 7.45226 9.58234 7.45226 9.45448C7.45226 9.32662 7.50636 9.19876 7.59488 9.10532C7.77683 8.92337 8.11124 8.92337 8.29319 9.10532C8.38171 9.19876 8.43581 9.32662 8.43581 9.45448C8.43581 9.58234 8.38171 9.7102 8.29319 9.80364ZM8.29319 8.08243C8.2686 8.1021 8.24402 8.12177 8.21943 8.14145C8.18992 8.16112 8.16042 8.17587 8.13091 8.18571C8.1014 8.20046 8.0719 8.21029 8.04239 8.21521C8.00797 8.22013 7.97354 8.22505 7.94404 8.22505C7.81617 8.22505 7.68831 8.17095 7.59488 8.08243C7.50636 7.989 7.45226 7.86114 7.45226 7.73327C7.45226 7.60541 7.50636 7.47755 7.59488 7.38412C7.64405 7.33986 7.69323 7.30543 7.75716 7.28084C7.84568 7.2415 7.94403 7.23167 8.04239 7.25134C8.0719 7.25626 8.1014 7.26609 8.13091 7.28084C8.16042 7.29068 8.18992 7.30543 8.21943 7.3251C8.24402 7.34477 8.2686 7.36444 8.29319 7.38412C8.38171 7.47755 8.43581 7.60541 8.43581 7.73327C8.43581 7.86114 8.38171 7.989 8.29319 8.08243Z" fill="#CBD0DC"/>
</svg>
