<svg width="13" height="13" viewBox="0 0 13 13" fill="none" xmlns="http://www.w3.org/2000/svg">
<path d="M11.7964 4.54086C11.7964 4.86543 11.5308 5.13098 11.2063 5.13098H2.55106C2.22649 5.13098 1.96094 4.86543 1.96094 4.54086V4.53594C1.96094 3.40978 2.87072 2.5 3.99688 2.5H9.75554C10.8817 2.5 11.7964 3.4147 11.7964 4.54086Z" fill="#7DB700"/>
<path d="M1.96094 6.45731V8.9211C1.96094 10.0473 2.87072 10.957 3.99688 10.957H9.75554C10.8817 10.957 11.7964 10.0423 11.7964 8.91618V6.45731C11.7964 6.13274 11.5308 5.86719 11.2063 5.86719H2.55106C2.22649 5.86719 1.96094 6.13274 1.96094 6.45731ZM4.91157 9.3096H3.92803C3.7264 9.3096 3.5592 9.14239 3.5592 8.94077C3.5592 8.73914 3.7264 8.57194 3.92803 8.57194H4.91157C5.1132 8.57194 5.2804 8.73914 5.2804 8.94077C5.2804 9.14239 5.1132 9.3096 4.91157 9.3096ZM8.1081 9.3096H6.14101C5.93938 9.3096 5.77218 9.14239 5.77218 8.94077C5.77218 8.73914 5.93938 8.57194 6.14101 8.57194H8.1081C8.30972 8.57194 8.47693 8.73914 8.47693 8.94077C8.47693 9.14239 8.30972 9.3096 8.1081 9.3096Z" fill="#7DB700"/>
</svg>
