<svg width="17" height="17" viewBox="0 0 17 17" fill="none" xmlns="http://www.w3.org/2000/svg">
<path d="M9.5801 7.10738H1.92869C1.6559 7.10738 1.42969 6.88117 1.42969 6.60838C1.42969 6.33559 1.6559 6.10938 1.92869 6.10938H9.5801C9.85289 6.10938 10.0791 6.33559 10.0791 6.60838C10.0791 6.88117 9.85289 7.10738 9.5801 7.10738Z" fill="#7DB700"/>
<path d="M5.92343 12.4277H4.59275C4.31997 12.4277 4.09375 12.2015 4.09375 11.9287C4.09375 11.6559 4.31997 11.4297 4.59275 11.4297H5.92343C6.19622 11.4297 6.42244 11.6559 6.42244 11.9287C6.42244 12.2015 6.19622 12.4277 5.92343 12.4277Z" fill="#7DB700"/>
<path d="M10.2463 12.4277H7.58494C7.31215 12.4277 7.08594 12.2015 7.08594 11.9287C7.08594 11.6559 7.31215 11.4297 7.58494 11.4297H10.2463C10.5191 11.4297 10.7453 11.6559 10.7453 11.9287C10.7453 12.2015 10.5191 12.4277 10.2463 12.4277Z" fill="#7DB700"/>
<path d="M12.2814 15.09H4.8828C2.23475 15.09 1.42969 14.2916 1.42969 11.6702V6.2011C1.42969 3.57966 2.23475 2.78125 4.8828 2.78125H9.5801C9.85289 2.78125 10.0791 3.00747 10.0791 3.28025C10.0791 3.55304 9.85289 3.77926 9.5801 3.77926H4.8828C2.79363 3.77926 2.4277 4.13854 2.4277 6.2011V11.6635C2.4277 13.7261 2.79363 14.0854 4.8828 14.0854H12.2747C14.3639 14.0854 14.7298 13.7261 14.7298 11.6635V8.94895C14.7298 8.67616 14.956 8.44994 15.2288 8.44994C15.5016 8.44994 15.7278 8.67616 15.7278 8.94895V11.6635C15.7345 14.2916 14.9294 15.09 12.2814 15.09Z" fill="#7DB700"/>
<path d="M15.2365 5.60738H11.5771C11.3043 5.60738 11.0781 5.38117 11.0781 5.10838C11.0781 4.83559 11.3043 4.60938 11.5771 4.60938H15.2365C15.5093 4.60938 15.7355 4.83559 15.7355 5.10838C15.7355 5.38117 15.5093 5.60738 15.2365 5.60738Z" fill="#7DB700"/>
<path d="M13.4131 7.43863C13.1403 7.43863 12.9141 7.21241 12.9141 6.93962V3.28025C12.9141 3.00747 13.1403 2.78125 13.4131 2.78125C13.6859 2.78125 13.9121 3.00747 13.9121 3.28025V6.93962C13.9121 7.21241 13.6859 7.43863 13.4131 7.43863Z" fill="#7DB700"/>
</svg>
