<svg width="36" height="37" viewBox="0 0 36 37" fill="none" xmlns="http://www.w3.org/2000/svg">
<path d="M3 17.2916V24.7916C3 28.2266 5.775 31.0016 9.21 31.0016H26.775C30.21 31.0016 33 28.2116 33 24.7766V17.2916C33 16.2866 32.19 15.4766 31.185 15.4766H4.815C3.81 15.4766 3 16.2866 3 17.2916ZM12 25.9766H9C8.385 25.9766 7.875 25.4666 7.875 24.8516C7.875 24.2366 8.385 23.7266 9 23.7266H12C12.615 23.7266 13.125 24.2366 13.125 24.8516C13.125 25.4666 12.615 25.9766 12 25.9766ZM21.75 25.9766H15.75C15.135 25.9766 14.625 25.4666 14.625 24.8516C14.625 24.2366 15.135 23.7266 15.75 23.7266H21.75C22.365 23.7266 22.875 24.2366 22.875 24.8516C22.875 25.4666 22.365 25.9766 21.75 25.9766Z" fill="#7DB700"/>
<path d="M20.25 7.01813V11.4131C20.25 12.4181 19.44 13.2281 18.435 13.2281H4.815C3.795 13.2281 3 12.3881 3 11.3831C3.015 9.68812 3.69 8.14313 4.815 7.01813C5.94 5.89313 7.5 5.20312 9.21 5.20312H18.435C19.44 5.20312 20.25 6.01313 20.25 7.01813Z" fill="#7DB700"/>
<path d="M29.955 3.10156H25.545C23.64 3.10156 22.5 4.24156 22.5 6.14656V10.5566C22.5 12.4616 23.64 13.6016 25.545 13.6016H29.955C31.86 13.6016 33 12.4616 33 10.5566V6.14656C33 4.24156 31.86 3.10156 29.955 3.10156ZM31.365 8.99656C31.215 9.14656 30.99 9.25156 30.75 9.26656H28.635L28.65 11.3516C28.635 11.6066 28.545 11.8166 28.365 11.9966C28.215 12.1466 27.99 12.2516 27.75 12.2516C27.255 12.2516 26.85 11.8466 26.85 11.3516V9.25156L24.75 9.26656C24.255 9.26656 23.85 8.84656 23.85 8.35156C23.85 7.85656 24.255 7.45156 24.75 7.45156L26.85 7.46656V5.36656C26.85 4.87156 27.255 4.45156 27.75 4.45156C28.245 4.45156 28.65 4.87156 28.65 5.36656L28.635 7.45156H30.75C31.245 7.45156 31.65 7.85656 31.65 8.35156C31.635 8.60656 31.53 8.81656 31.365 8.99656Z" fill="#7DB700"/>
</svg>
