<svg width="22" height="23" viewBox="0 0 22 23" fill="none" xmlns="http://www.w3.org/2000/svg">
<g clip-path="url(#clip0_3429_16651)">
<path fill-rule="evenodd" clip-rule="evenodd" d="M9.91597 0.875C8.73188 0.875 7.77197 1.8349 7.77197 3.019V3.63543L7.33821 3.20167C6.50093 2.36439 5.14342 2.36439 4.30614 3.20167L2.74697 4.76084C1.90969 5.59812 1.90969 6.95563 2.74698 7.79291L3.18231 8.22825L2.56587 8.22825C1.38178 8.22825 0.421875 9.18815 0.421875 10.3722L0.421875 12.5772C0.421875 13.7613 1.38178 14.7212 2.56588 14.7212H3.18832L2.74606 15.1635C1.90878 16.0008 1.90878 17.3583 2.74606 18.1956L4.30523 19.7547C5.14251 20.592 6.50002 20.592 7.3373 19.7547L7.77197 19.3201V19.9333C7.77197 21.1174 8.73188 22.0773 9.91597 22.0773H12.121C13.3051 22.0773 14.265 21.1174 14.265 19.9333V19.3109L14.7072 19.7532C15.5445 20.5904 16.902 20.5904 17.7393 19.7532L19.2985 18.194C20.1357 17.3567 20.1357 15.9992 19.2985 15.1619L18.8578 14.7212L19.4802 14.7212C20.6643 14.7212 21.6242 13.7613 21.6242 12.5772V10.3722C21.6242 9.18815 20.6643 8.22825 19.4802 8.22825L18.8638 8.22825L19.2976 7.79449C20.1348 6.95721 20.1348 5.5997 19.2976 4.76242L17.7384 3.20325C16.9011 2.36596 15.5436 2.36597 14.7063 3.20325L14.265 3.64459V3.019C14.265 1.8349 13.3051 0.875 12.121 0.875H9.91597ZM9.91597 3.019L12.121 3.019L12.121 3.64459C12.121 5.55469 14.4304 6.51128 15.781 5.16063L16.2223 4.71929L17.7815 6.27845L17.3478 6.71221C15.9971 8.06286 16.9537 10.3722 18.8638 10.3722H19.4802V12.5772L18.8578 12.5772C16.9477 12.5772 15.9911 14.8866 17.3417 16.2373L17.7824 16.678L16.2233 18.2371L15.781 17.7949C14.4304 16.4442 12.121 17.4008 12.121 19.3109V19.9333L9.91597 19.9333V19.3201C9.91597 17.41 7.60658 16.4534 6.25594 17.804L5.82126 18.2387L4.2621 16.6795L4.70436 16.2373C6.055 14.8866 5.09842 12.5772 3.18832 12.5772L2.56587 12.5772L2.56587 10.3722H3.18231C5.09241 10.3722 6.04899 8.06286 4.69835 6.71221L4.26301 6.27687L5.82218 4.71771L6.25594 5.15147C7.60658 6.50212 9.91597 5.54553 9.91597 3.63543V3.019ZM9.1521 11.4762C9.1521 10.4446 9.98837 9.60837 11.02 9.60837C12.0515 9.60837 12.8878 10.4446 12.8878 11.4762C12.8878 12.5078 12.0515 13.3441 11.02 13.3441C9.98837 13.3441 9.1521 12.5078 9.1521 11.4762ZM11.02 7.46437C8.80427 7.46437 7.0081 9.26054 7.0081 11.4762C7.0081 13.6919 8.80427 15.4881 11.02 15.4881C13.2356 15.4881 15.0318 13.6919 15.0318 11.4762C15.0318 9.26054 13.2356 7.46437 11.02 7.46437Z" fill="white"/>
</g>
<defs>
<clipPath id="clip0_3429_16651">
<rect width="21.44" height="21.44" fill="white" transform="translate(0.296875 0.757812)"/>
</clipPath>
</defs>
</svg>
